<svg width="18" height="18" viewBox="0 0 18 18" fill="none" xmlns="http://www.w3.org/2000/svg">
<path d="M9.91667 0.75H8.08333V9.91667H9.91667V0.75ZM14.3487 2.73458L13.0517 4.03167C14.4908 5.20958 15.4167 6.9925 15.4167 9C15.4167 12.5429 12.5429 15.4167 9 15.4167C5.45708 15.4167 2.58333 12.5429 2.58333 9C2.58333 6.9925 3.50917 5.20958 4.94833 4.03167L3.65125 2.73458C1.88208 4.24708 0.75 6.48833 0.75 9C0.75 13.5558 4.44417 17.25 9 17.25C13.5558 17.25 17.25 13.5558 17.25 9C17.25 6.48833 16.1179 4.24708 14.3487 2.73458Z" fill="#9F72FF"/>
</svg>