<svg width="21" height="25" viewBox="0 0 21 25" fill="none" xmlns="http://www.w3.org/2000/svg">
<path d="M2.6875 12.9718V7.29159C2.6875 7.00409 2.92032 6.77075 3.20834 6.77075H6.33334V4.68742C6.33334 2.39002 8.20261 0.520752 10.5 0.520752C12.7974 0.520752 14.6667 2.39002 14.6667 4.68742V6.77075H17.7917C18.0797 6.77075 18.3125 7.00409 18.3125 7.29159V12.9718L20.3865 23.8609C20.4156 24.0129 20.375 24.1708 20.276 24.2905C20.1771 24.4098 20.0302 24.4791 19.875 24.4791H1.125C0.969795 24.4791 0.822922 24.4098 0.723442 24.2905C0.625004 24.1708 0.583857 24.0135 0.613024 23.8609L2.6875 12.9718ZM13.625 4.68742C13.625 2.96398 12.2234 1.56242 10.5 1.56242C8.77657 1.56242 7.37501 2.96398 7.37501 4.68742V6.77075H13.625V4.68742Z" fill="#9F72FF"/>
</svg>