<svg width="23" height="21" viewBox="0 0 23 21" fill="none" xmlns="http://www.w3.org/2000/svg">
<path d="M6.8125 16.75C5.66198 16.75 4.72917 17.6828 4.72917 18.8333C4.72917 19.9839 5.66198 20.9167 6.8125 20.9167C7.96302 20.9167 8.89583 19.9839 8.89583 18.8333C8.89583 17.6828 7.96302 16.75 6.8125 16.75ZM6.8125 19.875C6.23698 19.875 5.77083 19.4089 5.77083 18.8333C5.77083 18.2578 6.23698 17.7917 6.8125 17.7917C7.38802 17.7917 7.85417 18.2578 7.85417 18.8333C7.85417 19.4089 7.38802 19.875 6.8125 19.875Z" fill="#223E49"/>
<path d="M19.3125 16.75C18.162 16.75 17.2292 17.6828 17.2292 18.8333C17.2292 19.9839 18.162 20.9167 19.3125 20.9167C20.463 20.9167 21.3958 19.9839 21.3958 18.8333C21.3958 17.6828 20.463 16.75 19.3125 16.75ZM19.3125 19.875C18.737 19.875 18.2708 19.4089 18.2708 18.8333C18.2708 18.2578 18.737 17.7917 19.3125 17.7917C19.888 17.7917 20.3542 18.2578 20.3542 18.8333C20.3542 19.4089 19.888 19.875 19.3125 19.875Z" fill="#223E49"/>
<path d="M22.8391 3.91763C22.7401 3.79836 22.5927 3.72908 22.4375 3.72908H4.21979L3.63542 0.510856C3.59063 0.26346 3.375 0.083252 3.12344 0.083252H0.562501C0.275001 0.083252 0.0416679 0.316585 0.0416679 0.604085C0.0416679 0.891585 0.275001 1.12492 0.562501 1.12492H2.68854L5.25886 15.2806C5.30365 15.528 5.51927 15.7083 5.77083 15.7083H20.3542C20.6042 15.7083 20.8193 15.5306 20.8656 15.2848L22.949 4.34731C22.9781 4.19523 22.9375 4.03742 22.8391 3.91763ZM21.312 7.37492H17.9755L18.2234 4.77075H21.8078L21.312 7.37492ZM5.07083 8.41658H8.24844L8.49636 11.0208H5.54375L5.07083 8.41658ZM13.5833 8.41658H16.8297L16.5818 11.0208H13.5833V8.41658ZM9.19583 7.37492L8.94792 4.77075H12.5417V7.37492H9.19583ZM12.5417 8.41658V11.0208H9.54323L9.29531 8.41658H12.5417ZM9.64219 12.0624H12.5417V14.6666H9.89011L9.64219 12.0624ZM13.5833 12.0624H16.4828L16.2349 14.6666H13.5833V12.0624ZM13.5833 7.37492V4.77075H17.1771L16.9292 7.37492H13.5833ZM17.8766 8.41658H21.1135L20.6177 11.0208H17.6286L17.8766 8.41658ZM7.90156 4.77075L8.14948 7.37492H4.88177L4.40886 4.77075H7.90156ZM5.73281 12.0624H8.59583L8.84375 14.6666H6.20573L5.73281 12.0624ZM19.9229 14.6666H17.2812L17.5292 12.0624H20.4193L19.9229 14.6666Z" fill="#9F72FF"/>
</svg>