<svg width="25" height="25" viewBox="0 0 25 25" fill="none" xmlns="http://www.w3.org/2000/svg">
<path d="M8.59375 8.59375H0.78125V0.78125H8.59375V8.59375Z" stroke="#9F72FF" stroke-width="2" stroke-miterlimit="10" stroke-linecap="square"/>
<path d="M5.46875 3.90625H3.90625V5.46875H5.46875V3.90625Z" stroke="#8CABF1" stroke-width="2" stroke-miterlimit="10" stroke-linecap="square"/>
<path d="M8.59375 24.2188H0.78125V16.4062H8.59375V24.2188Z" stroke="#9F72FF" stroke-width="2" stroke-miterlimit="10" stroke-linecap="square"/>
<path d="M5.46875 19.5312H3.90625V21.0938H5.46875V19.5312Z" stroke="#8CABF1" stroke-width="2" stroke-miterlimit="10" stroke-linecap="square"/>
<path d="M24.2188 8.59375H16.4062V0.78125H24.2188V8.59375Z" stroke="#9F72FF" stroke-width="2" stroke-miterlimit="10" stroke-linecap="square"/>
<path d="M21.0938 3.90625H19.5312V5.46875H21.0938V3.90625Z" stroke="#8CABF1" stroke-width="2" stroke-miterlimit="10" stroke-linecap="square"/>
<path d="M24.2188 24.2188H17.1875V21.0938H12.5V19.5312" stroke="#9F72FF" stroke-width="2" stroke-miterlimit="10" stroke-linecap="square"/>
<path d="M15.625 17.1875H21.0938V12.5H24.2188" stroke="#9F72FF" stroke-width="2" stroke-miterlimit="10" stroke-linecap="square"/>
<path d="M1.5625 10.9375V12.5H6.25V14.0625" stroke="#9F72FF" stroke-width="2" stroke-miterlimit="10" stroke-linecap="square"/>
<path d="M14.0625 1.5625V4.6875H11.7188V12.5H17.1875V14.0625" stroke="#9F72FF" stroke-width="2" stroke-miterlimit="10" stroke-linecap="square"/>
<path d="M21.0938 17.1875H24.2188" stroke="#9F72FF" stroke-width="2" stroke-miterlimit="10" stroke-linecap="square"/>
<path d="M21.0938 24.2188V21.875H22.6562V20.3125" stroke="#9F72FF" stroke-width="2" stroke-miterlimit="10" stroke-linecap="square"/>
<path d="M12.5 21.0938V24.2188" stroke="#9F72FF" stroke-width="2" stroke-miterlimit="10" stroke-linecap="square"/>
<path d="M6.25 12.5H7.8125" stroke="#9F72FF" stroke-width="2" stroke-miterlimit="10" stroke-linecap="square"/>
<path d="M22.6562 12.5V10.9375" stroke="#9F72FF" stroke-width="2" stroke-miterlimit="10" stroke-linecap="square"/>
<path d="M13.2812 12.5H11.7188V14.8438H13.2812V12.5Z" stroke="#9F72FF" stroke-width="2" stroke-miterlimit="10" stroke-linecap="square"/>
<path d="M13.2812 8.59375H11.7188" stroke="#9F72FF" stroke-width="2" stroke-miterlimit="10" stroke-linecap="square"/>
<path d="M22.6562 21.875V24.2188" stroke="#9F72FF" stroke-width="2" stroke-miterlimit="10" stroke-linecap="square"/>
</svg>