<svg width="20" height="22" viewBox="0 0 20 22" fill="none" xmlns="http://www.w3.org/2000/svg">
<path d="M10 11.4583C12.7798 11.4583 15.0417 9.19638 15.0417 6.41659V5.49992C15.0417 2.72013 12.7798 0.458252 10 0.458252C7.22025 0.458252 4.95837 2.72013 4.95837 5.49992V6.41659C4.95837 9.19638 7.22025 11.4583 10 11.4583Z" fill="black"/>
<path d="M17.0024 14.293C15.4661 13.836 13.0039 13.2915 10 13.2915C6.99608 13.2915 4.53392 13.836 2.99758 14.293C1.42917 14.7595 0.375 16.1726 0.375 17.8088V21.0832C0.375 21.3362 0.580333 21.5415 0.833333 21.5415H19.1667C19.4197 21.5415 19.625 21.3362 19.625 21.0832V17.8088C19.625 16.1726 18.5708 14.7595 17.0024 14.293Z" fill="#9F72FF"/>
</svg>