<svg width="22" height="22" viewBox="0 0 22 22" fill="none" xmlns="http://www.w3.org/2000/svg">
<path d="M21.1214 9.16842L18.5135 8.95071C18.3412 8.31775 18.0886 7.71 17.7605 7.13754L19.4522 5.13784C19.6062 4.95634 19.5952 4.68638 19.4265 4.51771L17.4818 2.57346C17.3136 2.40571 17.0436 2.39334 16.8617 2.54734L14.862 4.2395C14.289 3.91134 13.6813 3.65879 13.0488 3.48646L12.8315 0.878544C12.8118 0.640669 12.6134 0.458252 12.375 0.458252H9.62504C9.38671 0.458252 9.18825 0.640669 9.16808 0.878544L8.95083 3.48646C8.31833 3.65879 7.71058 3.91134 7.13767 4.2395L5.13796 2.54779C4.95646 2.39379 4.6865 2.40571 4.51783 2.57392L2.57358 4.51771C2.40492 4.68592 2.39392 4.95588 2.54792 5.13784L4.23962 7.13754C3.911 7.71046 3.65892 8.31821 3.48658 8.95071L0.878666 9.16842C0.641249 9.18813 0.458374 9.38613 0.458374 9.62492V12.3749C0.458374 12.6137 0.641249 12.8117 0.878666 12.8314L3.48658 13.0491C3.65892 13.6821 3.91146 14.2898 4.23962 14.8623L2.54792 16.8611C2.39392 17.043 2.40492 17.3125 2.57358 17.4817L4.51829 19.4264C4.68696 19.5946 4.95692 19.607 5.13842 19.4525L7.13812 17.7608C7.71104 18.089 8.31879 18.3415 8.95129 18.5138L9.16854 21.1218C9.18825 21.3592 9.38671 21.5416 9.62504 21.5416H12.375C12.6134 21.5416 12.8118 21.3592 12.832 21.1213L13.0492 18.5134C13.6817 18.341 14.2895 18.0885 14.8624 17.7603L16.8621 19.452C17.0441 19.6065 17.314 19.5946 17.4823 19.4259L19.427 17.4812C19.5956 17.3125 19.6066 17.043 19.4526 16.8606L17.7609 14.8618C18.0891 14.2894 18.3416 13.6816 18.514 13.0487L21.1219 12.831C21.3588 12.8117 21.5417 12.6137 21.5417 12.3749V9.62492C21.5417 9.38613 21.3588 9.18813 21.1214 9.16842ZM11 14.2083C9.23087 14.2083 7.79171 12.7686 7.79171 10.9999C7.79171 9.23121 9.23087 7.79159 11 7.79159C12.7692 7.79159 14.2084 9.23121 14.2084 10.9999C14.2084 12.7686 12.7692 14.2083 11 14.2083Z" fill="#9F72FF"/>
<path d="M21.1214 9.16842L18.5135 8.95071C18.3412 8.31775 18.0886 7.71 17.7605 7.13754L19.4522 5.13784C19.6062 4.95634 19.5952 4.68638 19.4265 4.51771L17.4818 2.57346C17.3136 2.40571 17.0436 2.39334 16.8617 2.54734L14.862 4.2395C14.289 3.91134 13.6813 3.65879 13.0488 3.48646L12.8315 0.878544C12.8118 0.640669 12.6134 0.458252 12.375 0.458252H9.62504C9.38671 0.458252 9.18825 0.640669 9.16808 0.878544L8.95083 3.48646C8.31833 3.65879 7.71058 3.91134 7.13767 4.2395L5.13796 2.54779C4.95646 2.39379 4.6865 2.40571 4.51783 2.57392L2.57358 4.51771C2.40492 4.68592 2.39392 4.95588 2.54792 5.13784L4.23962 7.13754C3.911 7.71046 3.65892 8.31821 3.48658 8.95071L0.878666 9.16842C0.641249 9.18813 0.458374 9.38613 0.458374 9.62492V12.3749C0.458374 12.6137 0.641249 12.8117 0.878666 12.8314L3.48658 13.0491C3.65892 13.6821 3.91146 14.2898 4.23962 14.8623L2.54792 16.8611C2.39392 17.043 2.40492 17.3125 2.57358 17.4817L4.51829 19.4264C4.68696 19.5946 4.95692 19.607 5.13842 19.4525L7.13812 17.7608C7.71104 18.089 8.31879 18.3415 8.95129 18.5138L9.16854 21.1218C9.18825 21.3592 9.38671 21.5416 9.62504 21.5416H12.375C12.6134 21.5416 12.8118 21.3592 12.832 21.1213L13.0492 18.5134C13.6817 18.341 14.2895 18.0885 14.8624 17.7603L16.8621 19.452C17.0441 19.6065 17.314 19.5946 17.4823 19.4259L19.427 17.4812C19.5956 17.3125 19.6066 17.043 19.4526 16.8606L17.7609 14.8618C18.0891 14.2894 18.3416 13.6816 18.514 13.0487L21.1219 12.831C21.3588 12.8117 21.5417 12.6137 21.5417 12.3749V9.62492C21.5417 9.38613 21.3588 9.18813 21.1214 9.16842ZM11 14.2083C9.23087 14.2083 7.79171 12.7686 7.79171 10.9999C7.79171 9.23121 9.23087 7.79159 11 7.79159C12.7692 7.79159 14.2084 9.23121 14.2084 10.9999C14.2084 12.7686 12.7692 14.2083 11 14.2083Z" fill="#9F72FF"/>
</svg>