<svg width="25" height="25" viewBox="0 0 25 25" fill="none" xmlns="http://www.w3.org/2000/svg">
<path d="M24.0016 10.4187L21.038 10.1713C20.8422 9.452 20.5552 8.76138 20.1823 8.11086L22.1047 5.83846C22.2797 5.63221 22.2672 5.32544 22.0755 5.13377L19.8656 2.9244C19.6745 2.73377 19.3677 2.71971 19.1609 2.89471L16.8885 4.81763C16.2375 4.44471 15.5469 4.15773 14.8281 3.9619L14.5813 0.998356C14.5589 0.728044 14.3333 0.520752 14.0625 0.520752H10.9375C10.6667 0.520752 10.4411 0.728044 10.4182 0.998356L10.1714 3.9619C9.4526 4.15773 8.76198 4.44471 8.11094 4.81763L5.83854 2.89523C5.63229 2.72023 5.32552 2.73377 5.13385 2.92492L2.92448 5.13377C2.73281 5.32492 2.72031 5.63169 2.89531 5.83846L4.81771 8.11086C4.44427 8.7619 4.15781 9.45252 3.96198 10.1713L0.998436 10.4187C0.728645 10.4411 0.520832 10.6661 0.520832 10.9374V14.0624C0.520832 14.3338 0.728645 14.5588 0.998436 14.5812L3.96198 14.8286C4.15781 15.5478 4.44479 16.2385 4.81771 16.889L2.89531 19.1603C2.72031 19.3671 2.73281 19.6734 2.92448 19.8655L5.13437 22.0754C5.32604 22.2666 5.63281 22.2807 5.83906 22.1051L8.11146 20.1827C8.7625 20.5556 9.45312 20.8426 10.1719 21.0385L10.4187 24.002C10.4411 24.2718 10.6667 24.4791 10.9375 24.4791H14.0625C14.3333 24.4791 14.5589 24.2718 14.5818 24.0015L14.8286 21.0379C15.5474 20.8421 16.238 20.5551 16.8891 20.1822L19.1615 22.1046C19.3682 22.2801 19.675 22.2666 19.8661 22.0749L22.076 19.865C22.2677 19.6734 22.2802 19.3671 22.1052 19.1598L20.1828 16.8885C20.5557 16.2379 20.8427 15.5473 21.0385 14.828L24.0021 14.5806C24.2714 14.5588 24.4792 14.3338 24.4792 14.0624V10.9374C24.4792 10.6661 24.2714 10.4411 24.0016 10.4187ZM12.5 16.1458C10.4896 16.1458 8.85417 14.5098 8.85417 12.4999C8.85417 10.49 10.4896 8.85409 12.5 8.85409C14.5104 8.85409 16.1458 10.49 16.1458 12.4999C16.1458 14.5098 14.5104 16.1458 12.5 16.1458Z" fill="#9F72FF"/>
</svg>