<svg width="27" height="27" viewBox="0 0 27 27" fill="none" xmlns="http://www.w3.org/2000/svg">
<path d="M6.75 26.1562C8.14797 26.1562 9.28125 25.023 9.28125 23.625C9.28125 22.227 8.14797 21.0938 6.75 21.0938C5.35203 21.0938 4.21875 22.227 4.21875 23.625C4.21875 25.023 5.35203 26.1562 6.75 26.1562Z" fill="#9F72FF"/>
<path d="M22.7812 26.1562C24.1792 26.1562 25.3125 25.023 25.3125 23.625C25.3125 22.227 24.1792 21.0938 22.7812 21.0938C21.3833 21.0938 20.25 22.227 20.25 23.625C20.25 25.023 21.3833 26.1562 22.7812 26.1562Z" fill="#9F72FF"/>
<path d="M23.625 19.4062H5.90625C5.48859 19.4062 5.13338 19.1008 5.07178 18.6874L2.64853 2.53125H0V0.84375H3.375C3.79266 0.84375 4.14787 1.14919 4.20947 1.56262L4.73428 5.0625H26.1562C26.4094 5.0625 26.6482 5.17556 26.8085 5.37131C26.9688 5.56622 27.0329 5.82356 26.9831 6.07163L24.4519 18.7279C24.3734 19.1227 24.0275 19.4062 23.625 19.4062Z" fill="#9F72FF"/>
</svg>